# xmcd
#
# Track frame offsets: 
#        300
#        17617
#        36722
#        56112
#        84202
#        104834
#        128630
#        147037
#        165509
#        181393
#        202664
#        221385
#        238812
#        254895
#        274967
#        294319
#        313944
#        333872
#
# Disc length: 4701 seconds
#
# Revision: 0
# Processed by: cddbd v1.5.2PL0 Copyright (c) Steve Scherf et al.
# Submitted via: ExactAudioCopy v0.95a5
#
DISCID=11125912
DTITLE=Jennifer Lopez - Greatest Hits. Disc Two
DYEAR=2007
DGENRE=R&B
TTITLE0=Get Right (Feat. Fabolous)
TTITLE1=Carino
TTITLE2=He'll  Be Back
TTITLE3=Should've Never
TTITLE4=Talk About Us
TTITLE5=Jennifer Lopez - Sola
TTITLE6=Step Into My World
TTITLE7=Waiting For Tonight
TTITLE8=Por Arriesgarnos
TTITLE9=(Can't Believe) This Is Me
TTITLE10=Tu
TTITLE11=Promise Me You'll Try
TTITLE12=Theme From Mahagony (Do You Know Where You're Going To)
TTITLE13=Too Late
TTITLE14=Pleasure Is Mine
TTITLE15=I'm Real (Murder Remix Feat. Ja Rule)
TTITLE16=Secretly
TTITLE17=Adios
EXTD=
EXTT0=
EXTT1=
EXTT2=
EXTT3=
EXTT4=
EXTT5=
EXTT6=
EXTT7=
EXTT8=
EXTT9=
EXTT10=
EXTT11=
EXTT12=
EXTT13=
EXTT14=
EXTT15=
EXTT16=
EXTT17=
PLAYORDER=
